<?xml version="1.0" encoding="utf-8"?>
<!-- Generator: Adobe Illustrator 22.1.0, SVG Export Plug-In . SVG Version: 6.00 Build 0)  -->
<svg version="1.1" id="Layer_1" xmlns="http://www.w3.org/2000/svg" xmlns:xlink="http://www.w3.org/1999/xlink" x="0px" y="0px"
	 viewBox="0 0 24.3 14.2" style="enable-background:new 0 0 24.3 14.2;" xml:space="preserve">
<style type="text/css">
	.st0{fill:#FFFFFF;}
</style>
<g>
	<g>
		<path class="st0" d="M7.1,14.2C3.2,14.2,0,11,0,7.1C0,3.2,3.2,0,7.1,0c2.6,0,5,1.5,6.2,3.8H21c1.8,0,3.3,1.5,3.3,3.3
			c0,1.7-1.2,3.1-2.9,3.3l-0.2,0L21,10.2l-1-1.2l-1.3,1.5l-1.3-1.5l-1.1,1.3l-0.3,0h-2.6C12.1,12.7,9.7,14.2,7.1,14.2L7.1,14.2z
			 M7.1,1C3.7,1,1,3.7,1,7.1s2.7,6.1,6.1,6.1c2.4,0,4.5-1.3,5.5-3.5l0.1-0.3h3l1.6-1.9l1.3,1.5L20,7.6l1.6,1.8
			c1-0.3,1.8-1.2,1.8-2.3c0-1.3-1-2.3-2.3-2.3h-8.3l-0.1-0.3C11.5,2.3,9.4,1,7.1,1L7.1,1z"/>
	</g>
	<g>
		<path class="st0" d="M5.2,9C4.2,9,3.3,8.1,3.3,7.1c0-1.1,0.9-1.9,1.9-1.9c1.1,0,1.9,0.9,1.9,1.9C7.1,8.1,6.3,9,5.2,9L5.2,9z
			 M5.2,6.2c-0.5,0-0.9,0.4-0.9,0.9S4.7,8,5.2,8s0.9-0.4,0.9-0.9S5.7,6.2,5.2,6.2L5.2,6.2z"/>
	</g>
</g>
</svg>
