<?xml version="1.0" encoding="utf-8"?>
<!-- Generator: Adobe Illustrator 22.1.0, SVG Export Plug-In . SVG Version: 6.00 Build 0)  -->
<svg version="1.1" id="Layer_1" xmlns="http://www.w3.org/2000/svg" xmlns:xlink="http://www.w3.org/1999/xlink" x="0px" y="0px"
	 viewBox="0 0 22.9 22.9" style="enable-background:new 0 0 22.9 22.9;" xml:space="preserve">
<style type="text/css">
	.st0{fill:#35424B;}
</style>
<g>
	<g>
		<path class="st0" d="M11.4,22.9c-0.3,0-0.5-0.2-0.5-0.5V0.5c0-0.3,0.2-0.5,0.5-0.5c0.3,0,0.5,0.2,0.5,0.5v21.9
			C11.9,22.7,11.7,22.9,11.4,22.9L11.4,22.9z"/>
	</g>
	<g>
		<path class="st0" d="M22.4,11.9H0.5c-0.3,0-0.5-0.2-0.5-0.5c0-0.3,0.2-0.5,0.5-0.5h21.9c0.3,0,0.5,0.2,0.5,0.5
			C22.9,11.7,22.7,11.9,22.4,11.9L22.4,11.9z"/>
	</g>
</g>
</svg>
