<?xml version="1.0" encoding="utf-8"?>
<!-- Generator: Adobe Illustrator 22.1.0, SVG Export Plug-In . SVG Version: 6.00 Build 0)  -->
<svg version="1.1" id="Layer_1" xmlns="http://www.w3.org/2000/svg" xmlns:xlink="http://www.w3.org/1999/xlink" x="0px" y="0px"
	 viewBox="0 0 22.9 22.9" style="enable-background:new 0 0 22.9 22.9;" xml:space="preserve">
<style type="text/css">
	.st0{fill:#35424B;}
</style>
<g>
	<g>
		<g>
			<path class="st0" d="M12.6,10.7c-0.1,0-0.3-0.1-0.4-0.2c-0.2-0.2-0.1-0.5,0-0.7l4.3-3.7l-4.3-3.7c-0.2-0.2-0.2-0.5,0-0.7
				c0.2-0.2,0.5-0.2,0.7,0l4.8,4.1c0.1,0.1,0.2,0.2,0.2,0.4c0,0.1-0.1,0.3-0.2,0.4l-4.8,4.1C12.8,10.7,12.7,10.7,12.6,10.7
				L12.6,10.7z"/>
		</g>
	</g>
	<g>
		<path class="st0" d="M2.5,16.1c-0.1,0-0.2,0-0.3-0.1C0.8,15,0,13.3,0,11.5c0-3.2,2.6-5.7,5.7-5.7h10.8C16.8,5.8,17,6,17,6.2
			s-0.2,0.5-0.5,0.5H5.7c-2.6,0-4.8,2.2-4.8,4.8c0,1.5,0.7,2.9,1.9,3.8C3,15.5,3,15.8,2.9,16C2.8,16.1,2.7,16.1,2.5,16.1L2.5,16.1z"
			/>
	</g>
	<g>
		<g>
			<path class="st0" d="M10.3,20.8c-0.1,0-0.2,0-0.3-0.1l-4.8-4.1C5.1,16.5,5,16.3,5,16.2c0-0.1,0.1-0.3,0.2-0.4l4.8-4.1
				c0.2-0.2,0.5-0.1,0.7,0c0.2,0.2,0.1,0.5,0,0.7l-4.3,3.7l4.3,3.7c0.2,0.2,0.2,0.5,0,0.7C10.5,20.7,10.4,20.8,10.3,20.8L10.3,20.8z
				"/>
		</g>
	</g>
	<g>
		<path class="st0" d="M17.1,16.6H6.3c-0.3,0-0.5-0.2-0.5-0.5c0-0.3,0.2-0.5,0.5-0.5h10.8c2.6,0,4.8-2.2,4.8-4.8
			c0-1.5-0.7-2.9-1.9-3.8c-0.2-0.2-0.2-0.4-0.1-0.7c0.2-0.2,0.4-0.2,0.7-0.1c1.4,1.1,2.2,2.7,2.2,4.5C22.9,14,20.3,16.6,17.1,16.6
			L17.1,16.6z"/>
	</g>
</g>
</svg>
