<?xml version="1.0" encoding="utf-8"?>
<!-- Generator: Adobe Illustrator 22.1.0, SVG Export Plug-In . SVG Version: 6.00 Build 0)  -->
<svg version="1.1" id="Layer_1" xmlns="http://www.w3.org/2000/svg" xmlns:xlink="http://www.w3.org/1999/xlink" x="0px" y="0px"
	 viewBox="0 0 48 48" style="enable-background:new 0 0 48 48;" xml:space="preserve">
<style type="text/css">
	.st0{fill:#303030;}
</style>
<g>
	<g>
		<path class="st0" d="M44,48H21c-2.2,0-4-1.8-4-4V4c0-2.2,1.8-4,4-4h23c2.2,0,4,1.8,4,4v40C48,46.2,46.2,48,44,48z M21,2
			c-1.1,0-2,0.9-2,2v40c0,1.1,0.9,2,2,2h23c1.1,0,2-0.9,2-2V4c0-1.1-0.9-2-2-2H21z"/>
	</g>
	<g>
		<rect x="30" y="42" class="st0" width="5" height="2"/>
	</g>
	<g>
		<path class="st0" d="M35,23h-5c-0.6,0-1-0.4-1-1v-2.6c-0.3-0.1-0.7-0.3-1-0.4l-1.8,1.8c-0.4,0.4-1,0.4-1.4,0l-3.5-3.5
			c-0.2-0.2-0.3-0.4-0.3-0.7s0.1-0.5,0.3-0.7L23,14c-0.2-0.3-0.3-0.6-0.4-1H21v-2h2.3c0.5,0,0.9,0.3,1,0.8c0.2,0.8,0.4,1.2,0.8,1.9
			c0.2,0.4,0.2,0.9-0.1,1.2l-1.7,1.7l2.1,2.1l1.7-1.7c0.3-0.3,0.8-0.4,1.2-0.2c0.6,0.4,1.3,0.6,2,0.8c0.4,0.1,0.7,0.5,0.7,1V21h3
			v-2.3c0-0.5,0.3-0.8,0.7-1c0.7-0.2,1.4-0.5,2-0.8c0.4-0.2,0.9-0.2,1.2,0.2l1.7,1.7l2.1-2.1L40,14.9c-0.3-0.3-0.4-0.8-0.2-1.2
			c0.4-0.7,0.6-1.1,0.8-1.9c0.1-0.5,0.5-0.8,1-0.8H44v2h-1.6c-0.1,0.4-0.3,0.7-0.4,1l1.8,1.8c0.2,0.2,0.3,0.4,0.3,0.7
			S44,17,43.8,17.2l-3.5,3.5c-0.4,0.4-1,0.4-1.4,0L37,19c-0.3,0.2-0.7,0.3-1,0.4V22C36,22.6,35.6,23,35,23z"/>
	</g>
	<g>
		<path class="st0" d="M32.6,13.5c-2.5,0-4.5-2-4.5-4.5h2c0,1.4,1.1,2.5,2.5,2.5c1.4,0,2.5-1.1,2.5-2.5h2
			C37.1,11.5,35,13.5,32.6,13.5z"/>
	</g>
	<g>
		<rect x="18" y="5" class="st0" width="29" height="2"/>
	</g>
	<g>
		<rect x="18" y="38" class="st0" width="29" height="2"/>
	</g>
	<g>
		<path class="st0" d="M16,40h-3c-0.6,0-1-0.4-1-1v-2.6c-0.7-0.2-1.3-0.5-1.9-0.8l-1.9,1.9c-0.4,0.4-1,0.4-1.4,0l-4.2-4.2
			c-0.4-0.4-0.4-1,0-1.4L4.5,30c-0.3-0.6-0.6-1.3-0.8-1.9H1c-0.6,0-1-0.4-1-1v-6c0-0.6,0.4-1,1-1h2.6c0.2-0.7,0.5-1.3,0.8-1.9
			l-1.9-1.9c-0.4-0.4-0.4-1,0-1.4l4.2-4.2c0.4-0.4,1-0.4,1.4,0l1.9,1.9c0.6-0.3,1.3-0.6,1.9-0.8V9c0-0.6,0.4-1,1-1h3v2h-2v2.4
			c0,0.5-0.3,0.9-0.8,1c-1,0.3-1.9,0.7-2.8,1.2c-0.4,0.2-0.9,0.2-1.2-0.2l-1.7-1.7l-2.8,2.8l1.7,1.7c0.3,0.3,0.4,0.8,0.2,1.2
			c-0.5,0.9-0.9,1.8-1.2,2.8c-0.1,0.4-0.5,0.8-1,0.8H2v4h2.4c0.5,0,0.9,0.3,1,0.8c0.3,1,0.7,1.9,1.2,2.8c0.2,0.4,0.2,0.9-0.2,1.2
			l-1.7,1.7l2.8,2.8l1.7-1.7c0.3-0.3,0.8-0.4,1.2-0.2c0.9,0.5,1.8,0.9,2.8,1.2c0.4,0.1,0.8,0.5,0.8,1V38h2V40z"/>
	</g>
	<g>
		<path class="st0" d="M16,31c-3.9,0-7-3.1-7-7s3.1-7,7-7v2c-2.8,0-5,2.2-5,5s2.2,5,5,5V31z"/>
	</g>
</g>
</svg>
