<?xml version="1.0" encoding="utf-8"?>
<!-- Generator: Adobe Illustrator 22.1.0, SVG Export Plug-In . SVG Version: 6.00 Build 0)  -->
<svg version="1.1" id="Layer_1" xmlns="http://www.w3.org/2000/svg" xmlns:xlink="http://www.w3.org/1999/xlink" x="0px" y="0px"
	 viewBox="0 0 46 36" style="enable-background:new 0 0 46 36;" xml:space="preserve">
<style type="text/css">
	.st0{fill:#FFFFFF;}
</style>
<g>
	<g>
		<path class="st0" d="M2,28H0v-5c0-0.6,0.4-1,1-1h2v-3C3,11.5,7.3,5.2,14.6,2.1C14.9,2,15.3,2,15.5,2.2C15.8,2.4,16,2.7,16,3v7h-2
			V4.6C8.3,7.5,5,12.8,5,19v4c0,0.6-0.4,1-1,1H2V28z"/>
	</g>
	<g>
		<path class="st0" d="M23,36c-10.5,0-20-3.8-20-8v-2h2v2c0,2.1,7,6,18,6s18-3.9,18-6v-2h2v2C43,32.2,33.5,36,23,36z"/>
	</g>
	<g>
		<path class="st0" d="M23,29c-6.7,0-12.3-0.8-15.4-2.1l0.8-1.8C11.2,26.3,16.6,27,23,27s11.8-0.7,14.6-1.9l0.8,1.8
			C35.3,28.2,29.7,29,23,29z"/>
	</g>
	<g>
		<path class="st0" d="M28,12h-2V2h-6v10h-2V1c0-0.6,0.4-1,1-1h8c0.6,0,1,0.4,1,1V12z"/>
	</g>
	<g>
		<path class="st0" d="M46,28h-2v-4h-2c-0.6,0-1-0.4-1-1v-4c0-6.2-3.3-11.5-9-14.4V10h-2V3c0-0.3,0.2-0.6,0.4-0.8
			C30.7,2,31,2,31.3,2.1C38.7,5.2,43,11.5,43,19v3h2c0.6,0,1,0.4,1,1V28z"/>
	</g>
</g>
</svg>
