<?xml version="1.0" encoding="utf-8"?>
<!-- Generator: Adobe Illustrator 22.1.0, SVG Export Plug-In . SVG Version: 6.00 Build 0)  -->
<svg version="1.1" id="Layer_1" xmlns="http://www.w3.org/2000/svg" xmlns:xlink="http://www.w3.org/1999/xlink" x="0px" y="0px"
	 viewBox="0 0 54.7 61.7" style="enable-background:new 0 0 54.7 61.7;" xml:space="preserve">
<style type="text/css">
	.st0{fill:#B6CB2A;}
</style>
<g>
	<path class="st0" d="M27.3,37.3c-1.7,0-3-1.3-3-3V3c0-1.7,1.3-3,3-3c1.7,0,3,1.3,3,3v31.3C30.3,36,29,37.3,27.3,37.3z"/>
</g>
<g>
	<path class="st0" d="M27.3,61.7C12.3,61.7,0,49.4,0,34.3c0-8.7,4-16.7,11-21.9c1.3-1,3.2-0.7,4.2,0.6c1,1.3,0.7,3.2-0.6,4.2
		C9.1,21.3,6,27.5,6,34.3c0,11.8,9.6,21.3,21.3,21.3c11.8,0,21.3-9.6,21.3-21.3c0-6.8-3.1-13-8.6-17.1c-1.3-1-1.6-2.9-0.6-4.2
		c1-1.3,2.9-1.6,4.2-0.6c7,5.2,11,13.2,11,21.9C54.7,49.4,42.4,61.7,27.3,61.7z"/>
</g>
</svg>
