<?xml version="1.0" encoding="utf-8"?>
<!-- Generator: Adobe Illustrator 22.1.0, SVG Export Plug-In . SVG Version: 6.00 Build 0)  -->
<svg version="1.1" id="Layer_1" xmlns="http://www.w3.org/2000/svg" xmlns:xlink="http://www.w3.org/1999/xlink" x="0px" y="0px"
	 viewBox="0 0 21.8 22.2" style="enable-background:new 0 0 21.8 22.2;" xml:space="preserve">
<style type="text/css">
	.st0{fill:#35424B;}
</style>
<g>
	<g>
		<path class="st0" d="M9.5,18.9C4.2,18.9,0,14.7,0,9.5C0,4.2,4.2,0,9.5,0c5.2,0,9.5,4.2,9.5,9.5C18.9,14.7,14.7,18.9,9.5,18.9
			L9.5,18.9z M9.5,1C4.8,1,1,4.8,1,9.5c0,4.7,3.8,8.5,8.5,8.5c4.7,0,8.5-3.8,8.5-8.5C17.9,4.8,14.1,1,9.5,1L9.5,1z"/>
	</g>
	<g>
		<path class="st0" d="M3.9,9.5h-1c0-3.6,3-6.6,6.6-6.6v1C6.4,3.9,3.9,6.4,3.9,9.5L3.9,9.5z"/>
	</g>
	<g>
		<path class="st0" d="M21.3,22.2c-0.1,0-0.3,0-0.4-0.1l-5.6-5.6c-0.2-0.2-0.2-0.5,0-0.7c0.2-0.2,0.5-0.2,0.7,0l5.6,5.6
			c0.2,0.2,0.2,0.5,0,0.7C21.6,22.2,21.5,22.2,21.3,22.2L21.3,22.2z"/>
	</g>
</g>
</svg>
