<?xml version="1.0" encoding="utf-8"?>
<!-- Generator: Adobe Illustrator 22.1.0, SVG Export Plug-In . SVG Version: 6.00 Build 0)  -->
<svg version="1.1" id="Layer_1" xmlns="http://www.w3.org/2000/svg" xmlns:xlink="http://www.w3.org/1999/xlink" x="0px" y="0px"
	 viewBox="0 0 15 17.1" style="enable-background:new 0 0 15 17.1;" xml:space="preserve">
<g>
	<g>
		<path d="M13.5,17.1c-0.4,0-0.8-0.1-1.1-0.4L4.3,8.5l8.1-8.1c0.6-0.6,1.5-0.6,2.1,0c0.6,0.6,0.6,1.5,0,2.1l-6,6l6,6
			c0.6,0.6,0.6,1.5,0,2.1C14.3,16.9,13.9,17.1,13.5,17.1z"/>
	</g>
	<g>
		<path d="M1.5,17.1c-0.8,0-1.5-0.7-1.5-1.5V1.4c0-0.8,0.7-1.5,1.5-1.5S3,0.6,3,1.4v14.1C3,16.4,2.3,17.1,1.5,17.1z"/>
	</g>
</g>
</svg>
