<?xml version="1.0" encoding="utf-8"?>
<!-- Generator: Adobe Illustrator 22.1.0, SVG Export Plug-In . SVG Version: 6.00 Build 0)  -->
<svg version="1.1" id="Layer_1" xmlns="http://www.w3.org/2000/svg" xmlns:xlink="http://www.w3.org/1999/xlink" x="0px" y="0px"
	 viewBox="0 0 22.9 22.9" style="enable-background:new 0 0 22.9 22.9;" xml:space="preserve">
<style type="text/css">
	.st0{fill:#35424B;}
</style>
<g>
	<g>
		<g>
			<path class="st0" d="M5.2,15.8c-0.1,0-0.2,0-0.3-0.1l-4.8-4.1C0.1,11.5,0,11.3,0,11.2c0-0.1,0.1-0.3,0.2-0.4l4.8-4.1
				c0.2-0.2,0.5-0.1,0.7,0c0.2,0.2,0.1,0.5,0,0.7l-4.3,3.7L5.5,15c0.2,0.2,0.2,0.5,0,0.7C5.5,15.7,5.3,15.8,5.2,15.8L5.2,15.8z"/>
		</g>
	</g>
	<g>
		<path class="st0" d="M22.4,11.7H1.3c-0.3,0-0.5-0.2-0.5-0.5c0-0.3,0.2-0.5,0.5-0.5h21.1C23,10.8,23,11.7,22.4,11.7L22.4,11.7z"/>
	</g>
</g>
</svg>
