<?xml version="1.0" encoding="utf-8"?>
<!-- Generator: Adobe Illustrator 22.1.0, SVG Export Plug-In . SVG Version: 6.00 Build 0)  -->
<svg version="1.1" id="Layer_1" xmlns="http://www.w3.org/2000/svg" xmlns:xlink="http://www.w3.org/1999/xlink" x="0px" y="0px"
	 viewBox="0 0 21.8 22.8" style="enable-background:new 0 0 21.8 22.8;" xml:space="preserve">
<style type="text/css">
	.st0{fill:#FFFFFF;}
</style>
<g>
	<g>
		<path class="st0" d="M21.2,3.6H0.5C0.2,3.6,0,3.4,0,3.1s0.2-0.5,0.5-0.5h20.8c0.3,0,0.5,0.2,0.5,0.5S21.5,3.6,21.2,3.6L21.2,3.6z"
			/>
	</g>
	<g>
		<path class="st0" d="M13.9,3.4c-0.3-1.5-1.6-2.5-3.1-2.5C9.4,0.9,8.1,2,7.8,3.4l-1-0.2c0.4-1.9,2.1-3.3,4-3.3c2,0,3.7,1.4,4,3.3
			L13.9,3.4L13.9,3.4z"/>
	</g>
	<g>
		<path class="st0" d="M17.6,22.9H4.1c-0.8,0-1.4-0.7-1.5-1.5l-1-17.3c0-0.3,0.2-0.5,0.5-0.5c0.3,0,0.5,0.2,0.5,0.5l1,17.3
			c0,0.3,0.2,0.5,0.5,0.5h13.5c0.2,0,0.5-0.2,0.5-0.5l1-17.3c0-0.3,0.3-0.5,0.5-0.5c0.3,0,0.5,0.3,0.5,0.5l-1,17.3
			C19.1,22.3,18.4,22.9,17.6,22.9L17.6,22.9z"/>
	</g>
	<g>
		<g>
			<path class="st0" d="M7.1,19.2c-0.3,0-0.5-0.2-0.5-0.5L5.9,6.8c0-0.3,0.2-0.5,0.5-0.5c0.3,0,0.5,0.2,0.5,0.5l0.7,11.9
				C7.6,19,7.4,19.2,7.1,19.2C7.1,19.2,7.1,19.2,7.1,19.2L7.1,19.2z"/>
		</g>
		<g>
			<path class="st0" d="M14.7,19.2C14.7,19.2,14.6,19.2,14.7,19.2c-0.3,0-0.5-0.3-0.5-0.5l0.7-11.9c0-0.3,0.3-0.5,0.5-0.5
				c0.3,0,0.5,0.3,0.5,0.5l-0.7,11.9C15.2,19,14.9,19.2,14.7,19.2L14.7,19.2z"/>
		</g>
	</g>
	<g>
		<path class="st0" d="M10.9,19.2c-0.3,0-0.5-0.2-0.5-0.5V6.8c0-0.3,0.2-0.5,0.5-0.5c0.3,0,0.5,0.2,0.5,0.5v11.9
			C11.4,19,11.2,19.2,10.9,19.2L10.9,19.2z"/>
	</g>
</g>
</svg>
