<?xml version="1.0" encoding="utf-8"?>
<!-- Generator: Adobe Illustrator 22.1.0, SVG Export Plug-In . SVG Version: 6.00 Build 0)  -->
<svg version="1.1" id="Layer_1" xmlns="http://www.w3.org/2000/svg" xmlns:xlink="http://www.w3.org/1999/xlink" x="0px" y="0px"
	 viewBox="0 0 15 17.1" style="enable-background:new 0 0 15 17.1;" xml:space="preserve">
<g>
	<path d="M1.5,17.1c-0.4,0-0.8-0.1-1.1-0.4c-0.6-0.6-0.6-1.5,0-2.1l6-6l-6-6C-0.1,2-0.1,1,0.4,0.4C1-0.1,2-0.1,2.6,0.4l8.1,8.1
		l-8.1,8.1C2.3,17,1.9,17.1,1.5,17.1z"/>
</g>
<g>
	<path d="M13.5,17.1c-0.8,0-1.5-0.7-1.5-1.5V1.5C12,0.7,12.7,0,13.5,0S15,0.7,15,1.5v14.1C15,16.5,14.3,17.1,13.5,17.1z"/>
</g>
</svg>
