<?xml version="1.0" encoding="utf-8"?>
<!-- Generator: Adobe Illustrator 22.1.0, SVG Export Plug-In . SVG Version: 6.00 Build 0)  -->
<svg version="1.1" id="Layer_1" xmlns="http://www.w3.org/2000/svg" xmlns:xlink="http://www.w3.org/1999/xlink" x="0px" y="0px"
	 viewBox="0 0 23 22.8" style="enable-background:new 0 0 23 22.8;" xml:space="preserve">
<style type="text/css">
	.st0{fill:#B6CB2A;}
</style>
<g>
	<g>
		<g>
			<path class="st0" d="M4.6,18.7c-0.1,0-0.3-0.1-0.4-0.1c-0.1-0.1-0.2-0.2-0.1-0.4l0.3-4.4c0-0.1,0.1-0.2,0.1-0.3L17.6,0.3
				c0.1-0.1,0.2-0.1,0.4-0.1l0,0c0.1,0,0.3,0.1,0.4,0.1l4.1,4.1c0.1,0.1,0.1,0.2,0.1,0.4c0,0.1-0.1,0.3-0.1,0.4L9.4,18.3
				c-0.1,0.1-0.2,0.1-0.3,0.1L4.6,18.7C4.6,18.7,4.6,18.7,4.6,18.7L4.6,18.7z M5.4,14l-0.2,3.6l3.6-0.2L21.4,4.8L18,1.4L5.4,14
				L5.4,14z"/>
		</g>
		<g>
			<path class="st0" d="M19.8,7.2c-0.1,0-0.3,0-0.4-0.1l-3.7-3.7c-0.2-0.2-0.2-0.5,0-0.7c0.2-0.2,0.5-0.2,0.7,0l3.7,3.7
				c0.2,0.2,0.2,0.5,0,0.7C20,7.2,19.9,7.2,19.8,7.2L19.8,7.2z"/>
		</g>
		<g>
			<path class="st0" d="M6.7,18.5c0,0-0.1,0-0.1,0c-0.3-0.1-0.4-0.3-0.4-0.6l0,0c0-0.1,0-0.1,0-0.2c0-0.3-0.1-0.7-0.3-0.9
				c-0.2-0.2-0.6-0.3-0.9-0.3l-0.1,0c-0.3,0-0.5-0.1-0.6-0.4c0-0.3,0.1-0.5,0.4-0.6c0.1,0,0.1,0,0.2,0c0.7-0.1,1.3,0.1,1.7,0.6
				c0.4,0.4,0.7,1.1,0.6,1.7c0,0.1,0,0.2,0,0.3C7.2,18.3,6.9,18.5,6.7,18.5L6.7,18.5z"/>
		</g>
	</g>
	<g>
		<path class="st0" d="M22.5,22.8H0.7c-0.3,0-0.5-0.2-0.5-0.5V0.5C0.2,0.2,0.4,0,0.7,0h10.8C11.8,0,12,0.2,12,0.5
			C12,0.8,11.8,1,11.5,1H1.2v20.8H22V11.5c0-0.3,0.2-0.5,0.5-0.5c0.3,0,0.5,0.2,0.5,0.5v10.8C23,22.6,22.8,22.8,22.5,22.8L22.5,22.8
			z"/>
	</g>
</g>
</svg>
