<?xml version="1.0" encoding="utf-8"?>
<!-- Generator: Adobe Illustrator 22.1.0, SVG Export Plug-In . SVG Version: 6.00 Build 0)  -->
<svg version="1.1" id="Layer_1" xmlns="http://www.w3.org/2000/svg" xmlns:xlink="http://www.w3.org/1999/xlink" x="0px" y="0px"
	 viewBox="0 0 32 48" style="enable-background:new 0 0 32 48;" xml:space="preserve">
<style type="text/css">
	.st0{fill:#FFFFFF;}
</style>
<g>
	<g>
		<rect x="23" y="33" class="st0" width="2" height="10"/>
	</g>
	<g>
		<path class="st0" d="M20,48h-2v-2c0-0.3,0.2-0.7,0.5-0.8l8-5l1.1,1.7L20,46.6V48z"/>
	</g>
	<g>
		<rect x="7" y="33" class="st0" width="2" height="10"/>
	</g>
	<g>
		<path class="st0" d="M31,45h-2v-4c0-0.5-0.2-0.7-0.6-1.2l-0.2-0.2l-3-3l1.4-1.4l3.2,3.2c0.5,0.6,1.1,1.2,1.1,2.5V45H31z"/>
	</g>
	<g>
		<path class="st0" d="M3,45H1v-4c0-1.3,0.6-1.9,1.1-2.5l0.1-0.2l3-3l1.4,1.4l-3.1,3.1C3.2,40.3,3,40.5,3,41V45z"/>
	</g>
	<g>
		<path class="st0" d="M14,48h-2v-1.4l-7.5-4.7l1.1-1.7l8,5c0.3,0.2,0.5,0.5,0.5,0.8v2H14z"/>
	</g>
	<g>
		<path class="st0" d="M17,38h-2c-2.1,0-4.2-0.8-5.7-2.3c-0.3-0.3-3.4-3.1-4.1-4.2C4.3,30.2,4,27.2,4,26v-6h2v6
			c0,1.5,0.4,3.7,0.8,4.4c0.4,0.7,2.6,2.7,3.8,3.8c1.2,1.1,2.7,1.7,4.3,1.7h2c1.6,0,3.2-0.6,4.3-1.7c1.3-1.1,3.4-3.2,3.9-3.8
			c0.5-0.7,0.8-3,0.8-4.4v-6h2v6c0,1.2-0.3,4.2-1.2,5.6c-0.7,1.1-3.8,3.9-4.2,4.2C21.2,37.2,19.1,38,17,38z"/>
	</g>
	<g>
		<path class="st0" d="M20,10h-2V2h-4v8h-2V1c0-0.6,0.4-1,1-1h6c0.6,0,1,0.4,1,1V10z"/>
	</g>
	<g>
		<rect y="18" class="st0" width="32" height="2"/>
	</g>
	<g>
		<path class="st0" d="M32,17h-2v-1.4l-1.4-0.7C28.2,14.7,28,14.4,28,14v-2c0-3.4-1.5-5.9-5-8.2V7h-2V2c0-0.4,0.2-0.7,0.5-0.9
			s0.7-0.2,1,0C26,3.1,30,6.1,30,12v1.4l1.4,0.7c0.3,0.2,0.6,0.5,0.6,0.9V17z"/>
	</g>
	<g>
		<path class="st0" d="M2,17H0v-2c0-0.4,0.2-0.7,0.6-0.9L2,13.4V12C2,6,6,3,9.5,1.1c0.3-0.2,0.7-0.2,1,0S11,1.6,11,2v5H9V3.8
			C5.5,6,4,8.5,4,12v2c0,0.4-0.2,0.7-0.6,0.9L2,15.6V17z"/>
	</g>
</g>
</svg>
