<?xml version="1.0" encoding="utf-8"?>
<!-- Generator: Adobe Illustrator 22.1.0, SVG Export Plug-In . SVG Version: 6.00 Build 0)  -->
<svg version="1.1" id="Layer_1" xmlns="http://www.w3.org/2000/svg" xmlns:xlink="http://www.w3.org/1999/xlink" x="0px" y="0px"
	 viewBox="0 0 38.8 38.8" style="enable-background:new 0 0 38.8 38.8;" xml:space="preserve">
<style type="text/css">
	.st0{fill:#CB482A;}
</style>
<path class="st0" d="M23.6,19.4L37.9,5.1c1.2-1.2,1.2-3.1,0-4.2c-1.2-1.2-3.1-1.2-4.2,0L19.4,15.2L5.1,0.9C4-0.3,2-0.3,0.9,0.9
	c-1.2,1.2-1.2,3.1,0,4.2l14.3,14.3L0.9,33.7c-1.2,1.2-1.2,3.1,0,4.2c0.6,0.6,1.4,0.9,2.1,0.9s1.5-0.3,2.1-0.9l14.3-14.3l14.3,14.3
	c0.6,0.6,1.4,0.9,2.1,0.9s1.5-0.3,2.1-0.9c1.2-1.2,1.2-3.1,0-4.2L23.6,19.4z"/>
</svg>
