<?xml version="1.0" encoding="utf-8"?>
<!-- Generator: Adobe Illustrator 22.1.0, SVG Export Plug-In . SVG Version: 6.00 Build 0)  -->
<svg version="1.1" id="Layer_1" xmlns="http://www.w3.org/2000/svg" xmlns:xlink="http://www.w3.org/1999/xlink" x="0px" y="0px"
	 viewBox="0 0 21.6 19" style="enable-background:new 0 0 21.6 19;" xml:space="preserve">
<style type="text/css">
	.st0{fill:#303030;}
</style>
<g>
	<g>
		<path class="st0" d="M21,19H0.5C0.2,19,0,18.8,0,18.5V2.2c0-0.3,0.2-0.5,0.5-0.5H21c0.3,0,0.5,0.2,0.5,0.5v16.3
			C21.5,18.8,21.3,19,21,19L21,19z M1,18h19.5V2.7H1V18L1,18z"/>
	</g>
	<g>
		<path class="st0" d="M17.2,4.3c-0.3,0-0.5-0.2-0.5-0.5V0.5c0-0.3,0.2-0.5,0.5-0.5c0.3,0,0.5,0.2,0.5,0.5v3.3
			C17.7,4.1,17.5,4.3,17.2,4.3L17.2,4.3z"/>
	</g>
	<g>
		<path class="st0" d="M4.4,4.3c-0.3,0-0.5-0.2-0.5-0.5V0.5C3.9,0.2,4.2,0,4.4,0c0.3,0,0.5,0.2,0.5,0.5v3.3C4.9,4.1,4.7,4.3,4.4,4.3
			L4.4,4.3z"/>
	</g>
	<g>
		<path class="st0" d="M21,8.1H0.6c-0.3,0-0.5-0.2-0.5-0.5c0-0.3,0.2-0.5,0.5-0.5H21c0.3,0,0.5,0.2,0.5,0.5
			C21.5,7.8,21.2,8.1,21,8.1L21,8.1z"/>
	</g>
	<polygon class="st0" points="5.2,10.1 3.2,10.1 3.2,12 5.2,12 5.2,10.1 	"/>
	<polygon class="st0" points="8.5,10.1 6.6,10.1 6.6,12 8.5,12 8.5,10.1 	"/>
	<polygon class="st0" points="11.9,10.1 10,10.1 10,12 11.9,12 11.9,10.1 	"/>
	<polygon class="st0" points="15.2,10.1 13.3,10.1 13.3,12 15.2,12 15.2,10.1 	"/>
	<polygon class="st0" points="18.6,10.1 16.7,10.1 16.7,12 18.6,12 18.6,10.1 	"/>
	<polygon class="st0" points="5.2,13.2 3.2,13.2 3.2,15.2 5.2,15.2 5.2,13.2 	"/>
	<polygon class="st0" points="8.5,13.2 6.6,13.2 6.6,15.2 8.5,15.2 8.5,13.2 	"/>
	<polygon class="st0" points="11.9,13.2 10,13.2 10,15.2 11.9,15.2 11.9,13.2 	"/>
	<polygon class="st0" points="15.2,13.2 13.3,13.2 13.3,15.2 15.2,15.2 15.2,13.2 	"/>
	<polygon class="st0" points="18.6,13.2 16.7,13.2 16.7,15.2 18.6,15.2 18.6,13.2 	"/>
</g>
</svg>
